<?xml version="1.0" encoding="utf-8"?>
<!-- Generator: Adobe Illustrator 23.0.3, SVG Export Plug-In . SVG Version: 6.00 Build 0)  -->
<svg version="1.1" xmlns="http://www.w3.org/2000/svg" xmlns:xlink="http://www.w3.org/1999/xlink" x="0px" y="0px"
	 viewBox="0 0 256 256" style="enable-background:new 0 0 256 256;" xml:space="preserve">
<style type="text/css">
	.st0{fill:#878787;}
	.st1{fill:#F2E1D6;}
	.st2{fill:#FFFFFF;}
	.st3{fill:#F0C020;}
	.st4{fill:#F9E5AF;}
	.st5{fill:#72C1E8;}
	.st6{fill:#C5E5FF;}
	.st7{fill:#13BF6D;}
	.st8{fill:#76FFBA;}
	.st9{fill:#EFEFEF;}
	.st10{fill:#FC5D3D;}
	.st11{fill:#FFCBC2;}
	.st12{fill:#FFB69F;}
	.st13{fill:#AFAFAF;}
	.st14{fill:#7C7B7A;}
	.st15{fill:#D6C0B4;}
	.st16{fill:#7A7380;}
	.st17{fill:#F0AB20;}
	.st18{fill:#FBE0E2;}
	.st19{fill:#4C4945;}
	.st20{fill:#68B0D4;}
	.st21{fill:#B35034;}
	.st22{fill:#EDAF85;}
	.st23{fill:#139C6D;}
</style>
<g id="Layer_2">
</g>
<g id="Layer_1">
	<g>
		<g>
			<g>
				<g>
					<g>
						<path class="st5" d="M245.885,159.48c5.476-20.515,5.487-42.425,0-62.98h-16.85c-1.89-6.17-4.37-12.04-7.34-17.66l11.93-11.92
							c-10.7-18.46-26.1-33.86-44.56-44.56l-11.92,11.93c-5.62-2.97-11.49-5.45-17.66-7.35V10.1c-20.518-5.476-42.424-5.486-62.98,0
							v16.84c-6.17,1.9-12.04,4.38-17.66,7.35l-11.92-11.93c-18.46,10.7-33.86,26.1-44.56,44.56l11.93,11.92
							c-2.97,5.62-5.45,11.49-7.35,17.66h-16.84c-2.68,10.04-4.11,20.61-4.11,31.49s1.43,21.45,4.11,31.49h16.84
							c1.9,6.17,4.38,12.04,7.35,17.66l-11.93,11.92c10.7,18.46,26.1,33.86,44.56,44.56l11.92-11.93
							c5.62,2.97,11.49,5.45,17.66,7.35v16.84c20.518,5.476,42.424,5.486,62.98,0v-16.84c6.17-1.9,12.04-4.38,17.66-7.35
							l11.92,11.93c18.46-10.7,33.86-26.1,44.56-44.56l-11.93-11.92c2.97-5.62,5.45-11.49,7.34-17.66H245.885z M126.863,206.737
							c-44.098,0-79.815-35.76-79.815-79.869s35.717-79.826,79.815-79.826c44.108,0,79.879,35.717,79.879,79.826
							S170.971,206.737,126.863,206.737z"/>
					</g>
				</g>
				<g>
					<g>
						<path class="st6" d="M126.892,221.444c-19.839,0-38.815-6.061-54.878-17.525c-1.124-0.803-1.384-2.364-0.582-3.487
							c0.802-1.124,2.364-1.383,3.487-0.583c15.209,10.857,33.181,16.596,51.973,16.596c49.471,0,89.574-40.011,89.574-89.536
							c0-23.934-9.325-46.439-26.259-63.373c-0.977-0.977-0.977-2.559,0-3.535s2.559-0.977,3.535,0
							c17.878,17.878,27.724,41.64,27.724,66.908C221.467,179.142,179.182,221.444,126.892,221.444z M63.995,197.51
							c-1.357-1.211-2.7-2.479-3.991-3.769c-0.977-0.976-0.978-2.559-0.001-3.535c0.977-0.978,2.559-0.977,3.536-0.002
							c1.225,1.224,2.499,2.427,3.786,3.575c1.03,0.919,1.12,2.499,0.201,3.529C66.606,198.338,65.026,198.43,63.995,197.51z"/>
					</g>
				</g>
				<g>
					<g>
						<g>
							<path class="st9" d="M159.798,99.46v13.726h-11.474V99.46c0-11.207-9.122-20.329-20.328-20.329s-20.328,9.122-20.328,20.329
								v13.726H96.192V99.46c0-17.565,14.238-31.803,31.803-31.803S159.798,81.894,159.798,99.46z"/>
						</g>
					</g>
					<g>
						<g>
							<path class="st10" d="M166.565,113.188H89.425c-3.715,0-6.727,3.012-6.727,6.727v49.89c0,3.715,3.012,6.727,6.727,6.727
								h77.141c3.715,0,6.727-3.012,6.727-6.727v-49.89C173.292,116.199,170.281,113.188,166.565,113.188z"/>
						</g>
					</g>
					<g>
						<g>
							<path class="st19" d="M136.519,138.835c0-4.708-3.817-8.524-8.524-8.524s-8.524,3.817-8.524,8.524
								c0,2.565,1.138,4.859,2.93,6.422v8.559c0,3.09,2.505,5.594,5.594,5.594s5.594-2.504,5.594-5.594v-8.559
								C135.381,143.694,136.519,141.399,136.519,138.835z"/>
						</g>
					</g>
					<g>
						<g>
							<path class="st11" d="M164.23,170.117h-0.765c-1.381,0-2.5-1.119-2.5-2.5s1.119-2.5,2.5-2.5h0.765c1.381,0,2.5,1.119,2.5,2.5
								S165.611,170.117,164.23,170.117z M153.466,170.117H91.058c-1.381,0-2.5-1.119-2.5-2.5v-42.592c0-1.381,1.119-2.5,2.5-2.5
								s2.5,1.119,2.5,2.5v40.092h59.908c1.381,0,2.5,1.119,2.5,2.5S154.846,170.117,153.466,170.117z"/>
						</g>
					</g>
				</g>
			</g>
			<g>
				<path d="M152.974,51.36c-0.5,1.29,0.16,2.729,1.44,3.229c1.452,0.503,2.781-0.284,3.229-1.45c0.49-1.29-0.159-2.729-1.439-3.229
					c0,0,0,0-0.01,0C154.934,49.43,153.445,50.11,152.974,51.36z"/>
			</g>
			<g>
				<path d="M165.585,54.18c-1.293-0.68-2.766-0.141-3.38,1.03c-0.65,1.22-0.19,2.73,1.03,3.38c25.29,13.49,41,39.65,41,68.271
					c0,42.84-34.684,77.37-77.371,77.37c-42.743,0-77.32-34.595-77.32-77.37c0-42.753,34.566-77.32,77.32-77.32
					c6.19,0,12.35,0.729,18.31,2.17c1.32,0.33,2.69-0.52,3.01-1.84c0.345-1.401-0.552-2.714-1.84-3.01
					c-6.34-1.54-12.89-2.32-19.48-2.32c-45.491,0-82.32,36.829-82.32,82.32c0,45.428,36.749,82.37,82.32,82.37
					c45.421,0,82.371-36.779,82.371-82.37C209.235,96.411,192.479,68.519,165.585,54.18z"/>
			</g>
			<g>
				<path d="M127.995,161.91c4.46,0,8.09-3.63,8.09-8.09v-7.511c1.89-2.05,2.93-4.699,2.93-7.479c0-6.07-4.939-11.021-11.02-11.021
					s-11.02,4.95-11.03,11.021c0,2.78,1.05,5.439,2.94,7.479v7.511C119.905,158.28,123.535,161.91,127.995,161.91z M127.995,132.809
					c3.31,0.011,6.02,2.71,6.02,6.021c0,1.76-0.739,3.37-2.069,4.54c-0.54,0.479-0.86,1.16-0.86,1.89v8.561
					c0,1.699-1.39,3.09-3.09,3.09s-3.09-1.391-3.09-3.09v-8.561c0-0.729-0.32-1.41-0.86-1.89c-1.34-1.17-2.07-2.78-2.07-4.54
					C121.975,135.519,124.675,132.82,127.995,132.809z"/>
			</g>
			<g>
				<circle cx="173.295" cy="137.69" r="2.5"/>
			</g>
			<g>
				<path d="M127.995,65.157c-18.915,0-34.303,15.388-34.303,34.303v11.23h-4.268c-5.09,0-9.23,4.14-9.23,9.22v49.89
					c0,5.09,4.14,9.23,9.23,9.23h77.14c5.091,0,9.23-4.141,9.23-9.23V147.69c0-1.381-1.12-2.5-2.5-2.5s-2.5,1.119-2.5,2.5V169.8
					c-0.01,2.33-1.9,4.23-4.23,4.23h-77.14c-2.33,0-4.22-1.9-4.23-4.23v-49.89c0.01-2.32,1.9-4.22,4.23-4.22h77.14
					c2.33,0,4.221,1.899,4.23,4.22v7.78c0,1.38,1.12,2.5,2.5,2.5s2.5-1.12,2.5-2.5v-7.78c0-5.08-4.14-9.22-9.23-9.22h-4.267V99.46
					C162.298,80.545,146.91,65.157,127.995,65.157z M145.823,110.69h-35.657V99.46c0-9.831,7.998-17.829,17.829-17.829
					c9.83,0,17.828,7.998,17.828,17.829V110.69z M157.298,110.69h-6.475V99.46c0-12.588-10.24-22.829-22.828-22.829
					s-22.829,10.241-22.829,22.829v11.23h-6.474V99.46c0-16.157,13.145-29.303,29.303-29.303c16.157,0,29.303,13.146,29.303,29.303
					V110.69z"/>
			</g>
		</g>
		<g>
			<path d="M95.865,248.3c-1.1-0.3-1.86-1.29-1.86-2.42v-15.01c-4.94-1.62-9.88-3.68-14.68-6.12l-10.63,10.64
				c-0.78,0.78-2.07,0.95-3.02,0.391c-18.84-10.92-34.56-26.641-45.47-45.471c-0.57-0.979-0.41-2.22,0.39-3.02l10.64-10.62
				c-2.44-4.81-4.5-9.75-6.12-14.689h-15.01c-1.13,0-2.12-0.761-2.42-1.851c-1.74-6.55-2.96-13.31-3.61-20.08
				c-0.127-1.404,0.892-2.599,2.25-2.72c1.36-0.13,2.59,0.87,2.73,2.24c0.56,5.87,1.57,11.729,2.99,17.41h14.9
				c1.09,0,2.07,0.729,2.39,1.76c1.79,5.81,4.2,11.609,7.17,17.229c0.51,0.98,0.34,2.16-0.44,2.94l-10.56,10.55
				c10.08,16.76,24.26,30.94,41.02,41.021l10.55-10.561c0.76-0.75,1.99-0.939,2.94-0.439c5.61,2.97,11.41,5.38,17.22,7.17
				c1.04,0.319,1.77,1.3,1.77,2.39v14.9c18.85,4.71,39.13,4.71,57.98,0v-14.9c0-1.09,0.72-2.07,1.76-2.39
				c5.819-1.79,11.62-4.2,17.229-7.17c0.95-0.5,2.181-0.311,2.94,0.439l10.55,10.561c16.76-10.08,30.94-24.261,41.021-41.021
				l-10.561-10.55c-0.78-0.78-0.96-1.96-0.439-2.94c2.979-5.64,5.39-11.43,7.159-17.22c0.32-1.04,1.301-1.77,2.391-1.77h14.91
				c4.639-18.544,4.826-38.713,0-57.98h-14.91c-1.11,0-2.07-0.71-2.391-1.77c-1.77-5.79-4.18-11.58-7.159-17.221
				c-0.511-0.96-0.33-2.17,0.439-2.939l10.561-10.551c-10.08-16.76-24.261-30.939-41.021-41.02l-10.55,10.56
				c-0.76,0.75-1.99,0.94-2.94,0.44c-5.609-2.96-11.399-5.38-17.229-7.17c-1.04-0.32-1.76-1.3-1.76-2.39V12.03
				c-18.87-4.7-39.11-4.7-57.98,0.01v14.9c0,1.09-0.73,2.069-1.77,2.39c-5.82,1.79-11.62,4.21-17.22,7.17
				c-0.95,0.5-2.18,0.31-2.94-0.44L66.525,25.5c-16.76,10.08-30.94,24.26-41.02,41.02l10.56,10.551c0.77,0.77,0.95,1.979,0.44,2.939
				c-2.97,5.62-5.38,11.41-7.17,17.221c-0.32,1.039-1.3,1.77-2.39,1.77h-14.9c-1.71,6.85-2.82,13.92-3.29,21
				c-0.09,1.37-1.27,2.44-2.66,2.33c-1.37-0.09-2.42-1.28-2.33-2.66c0.54-8.07,1.86-16.08,3.92-23.81c0.3-1.101,1.29-1.86,2.42-1.86
				h15.01c1.62-4.94,3.68-9.88,6.12-14.69L20.595,68.69c-0.8-0.801-0.96-2.051-0.39-3.03c10.91-18.82,26.64-34.55,45.47-45.46
				c0.95-0.561,2.24-0.391,3.02,0.39l10.63,10.641c4.79-2.431,9.73-4.49,14.68-6.12V10.099c0-1.13,0.76-2.119,1.86-2.42
				c20.84-5.56,43.42-5.56,64.26,0c1.1,0.29,1.86,1.29,1.86,2.42V25.11c4.949,1.63,9.899,3.689,14.68,6.12l10.63-10.641
				c0.78-0.78,2.06-0.95,3.02-0.39c18.841,10.91,34.561,26.64,45.471,45.46c0.569,0.979,0.41,2.229-0.391,3.03l-10.64,10.619
				c2.44,4.82,4.5,9.761,6.11,14.69h15.02c1.13,0,2.12,0.76,2.41,1.85c5.599,20.95,5.604,43.313,0,64.28
				c-0.29,1.09-1.28,1.851-2.41,1.851h-15.02c-1.61,4.939-3.67,9.88-6.11,14.68l10.64,10.63c0.801,0.8,0.96,2.04,0.391,3.02
				c-10.91,18.83-26.641,34.561-45.471,45.471c-0.96,0.56-2.239,0.39-3.02-0.391l-10.63-10.64c-4.8,2.44-9.74,4.5-14.68,6.12v15.01
				c0,1.13-0.761,2.12-1.86,2.42C139.518,253.793,117.175,253.98,95.865,248.3z M6.005,132.33c-1.35,0-2.47-1.1-2.5-2.46l0,0
				c-0.019-1.331,1.04-2.519,2.47-2.54h0.03c1.36,0,2.47,1.1,2.5,2.45c0,0.01,0.01,0.01,0.01,0.02c0.01,1.37-1.09,2.51-2.47,2.53
				C6.035,132.33,6.025,132.33,6.005,132.33z"/>
		</g>
	</g>
</g>
</svg>
